<svg xmlns="http://www.w3.org/2000/svg" viewBox="0 0 500 500" width="500" height="500">
  <defs>
    <radialGradient id="bg" cx="50%" cy="50%" r="70%">
      <stop offset="0%" stop-color="#051a05"/>
      <stop offset="100%" stop-color="#010801"/>
    </radialGradient>
    <radialGradient id="halo" cx="50%" cy="46%" r="38%">
      <stop offset="0%" stop-color="#00ff41" stop-opacity="0.13"/>
      <stop offset="100%" stop-color="#00ff41" stop-opacity="0"/>
    </radialGradient>
    <filter id="glow" x="-30%" y="-30%" width="160%" height="160%">
      <feGaussianBlur stdDeviation="5" result="b"/>
      <feMerge><feMergeNode in="b"/><feMergeNode in="SourceGraphic"/></feMerge>
    </filter>
  </defs>

  <rect width="500" height="500" fill="url(#bg)"/>

  <g stroke="#00ff41" stroke-opacity="0.055" stroke-width="1">
    <line x1="0" y1="50"  x2="500" y2="50"/>
    <line x1="0" y1="100" x2="500" y2="100"/>
    <line x1="0" y1="150" x2="500" y2="150"/>
    <line x1="0" y1="200" x2="500" y2="200"/>
    <line x1="0" y1="250" x2="500" y2="250"/>
    <line x1="0" y1="300" x2="500" y2="300"/>
    <line x1="0" y1="350" x2="500" y2="350"/>
    <line x1="0" y1="400" x2="500" y2="400"/>
    <line x1="0" y1="450" x2="500" y2="450"/>
    <line x1="50"  y1="0" x2="50"  y2="500"/>
    <line x1="100" y1="0" x2="100" y2="500"/>
    <line x1="150" y1="0" x2="150" y2="500"/>
    <line x1="200" y1="0" x2="200" y2="500"/>
    <line x1="250" y1="0" x2="250" y2="500"/>
    <line x1="300" y1="0" x2="300" y2="500"/>
    <line x1="350" y1="0" x2="350" y2="500"/>
    <line x1="400" y1="0" x2="400" y2="500"/>
    <line x1="450" y1="0" x2="450" y2="500"/>
  </g>

  <rect width="500" height="500" fill="url(#halo)"/>

  <rect x="20" y="20" width="460" height="460" fill="none" stroke="#00ff41" stroke-width="1" stroke-opacity="0.3"/>

  <polyline points="20,65 20,20 65,20"    fill="none" stroke="#00ff41" stroke-width="2.5"/>
  <polyline points="435,20 480,20 480,65" fill="none" stroke="#00ff41" stroke-width="2.5"/>
  <polyline points="20,435 20,480 65,480" fill="none" stroke="#00ff41" stroke-width="2.5"/>
  <polyline points="480,435 480,480 435,480" fill="none" stroke="#00ff41" stroke-width="2.5"/>

  <polygon points="250,112 326,156 326,244 250,288 174,244 174,156"
    fill="none" stroke="#00ff41" stroke-width="1.2" stroke-opacity="0.28"/>
  <polygon points="250,126 314,163 314,237 250,274 186,237 186,163"
    fill="none" stroke="#00ff41" stroke-width="0.6" stroke-opacity="0.13"/>

  <text x="250" y="232"
    text-anchor="middle"
    font-family="Orbitron, monospace"
    font-size="88" font-weight="900" letter-spacing="2"
    filter="url(#glow)">
    <tspan fill="#00c032">[</tspan><tspan fill="#00ff41">OPS</tspan><tspan fill="#ffffff">BOT</tspan><tspan fill="#00c032">]</tspan>
  </text>

  <line x1="100" y1="300" x2="400" y2="300" stroke="#00ff41" stroke-width="0.8" stroke-opacity="0.4"/>

  <text x="250" y="338"
    text-anchor="middle"
    font-family="'Share Tech Mono', monospace"
    font-size="13.5" letter-spacing="3.5"
    fill="#00c032">SEA DIVISION AUTOMATION</text>

  <g fill="#000" fill-opacity="0.04">
    <rect x="0" y="1"   width="500" height="1.5"/>
    <rect x="0" y="5"   width="500" height="1.5"/>
    <rect x="0" y="9"   width="500" height="1.5"/>
    <rect x="0" y="13"  width="500" height="1.5"/>
    <rect x="0" y="17"  width="500" height="1.5"/>
    <rect x="0" y="21"  width="500" height="1.5"/>
    <rect x="0" y="25"  width="500" height="1.5"/>
    <rect x="0" y="29"  width="500" height="1.5"/>
    <rect x="0" y="33"  width="500" height="1.5"/>
    <rect x="0" y="37"  width="500" height="1.5"/>
    <rect x="0" y="41"  width="500" height="1.5"/>
    <rect x="0" y="45"  width="500" height="1.5"/>
    <rect x="0" y="49"  width="500" height="1.5"/>
    <rect x="0" y="53"  width="500" height="1.5"/>
    <rect x="0" y="57"  width="500" height="1.5"/>
    <rect x="0" y="61"  width="500" height="1.5"/>
    <rect x="0" y="65"  width="500" height="1.5"/>
    <rect x="0" y="69"  width="500" height="1.5"/>
    <rect x="0" y="73"  width="500" height="1.5"/>
    <rect x="0" y="77"  width="500" height="1.5"/>
    <rect x="0" y="81"  width="500" height="1.5"/>
    <rect x="0" y="85"  width="500" height="1.5"/>
    <rect x="0" y="89"  width="500" height="1.5"/>
    <rect x="0" y="93"  width="500" height="1.5"/>
    <rect x="0" y="97"  width="500" height="1.5"/>
    <rect x="0" y="101" width="500" height="1.5"/>
    <rect x="0" y="105" width="500" height="1.5"/>
    <rect x="0" y="109" width="500" height="1.5"/>
    <rect x="0" y="113" width="500" height="1.5"/>
    <rect x="0" y="117" width="500" height="1.5"/>
    <rect x="0" y="121" width="500" height="1.5"/>
    <rect x="0" y="125" width="500" height="1.5"/>
    <rect x="0" y="129" width="500" height="1.5"/>
    <rect x="0" y="133" width="500" height="1.5"/>
    <rect x="0" y="137" width="500" height="1.5"/>
    <rect x="0" y="141" width="500" height="1.5"/>
    <rect x="0" y="145" width="500" height="1.5"/>
    <rect x="0" y="149" width="500" height="1.5"/>
    <rect x="0" y="153" width="500" height="1.5"/>
    <rect x="0" y="157" width="500" height="1.5"/>
    <rect x="0" y="161" width="500" height="1.5"/>
    <rect x="0" y="165" width="500" height="1.5"/>
    <rect x="0" y="169" width="500" height="1.5"/>
    <rect x="0" y="173" width="500" height="1.5"/>
    <rect x="0" y="177" width="500" height="1.5"/>
    <rect x="0" y="181" width="500" height="1.5"/>
    <rect x="0" y="185" width="500" height="1.5"/>
    <rect x="0" y="189" width="500" height="1.5"/>
    <rect x="0" y="193" width="500" height="1.5"/>
    <rect x="0" y="197" width="500" height="1.5"/>
    <rect x="0" y="201" width="500" height="1.5"/>
    <rect x="0" y="205" width="500" height="1.5"/>
    <rect x="0" y="209" width="500" height="1.5"/>
    <rect x="0" y="213" width="500" height="1.5"/>
    <rect x="0" y="217" width="500" height="1.5"/>
    <rect x="0" y="221" width="500" height="1.5"/>
    <rect x="0" y="225" width="500" height="1.5"/>
    <rect x="0" y="229" width="500" height="1.5"/>
    <rect x="0" y="233" width="500" height="1.5"/>
    <rect x="0" y="237" width="500" height="1.5"/>
    <rect x="0" y="241" width="500" height="1.5"/>
    <rect x="0" y="245" width="500" height="1.5"/>
    <rect x="0" y="249" width="500" height="1.5"/>
    <rect x="0" y="253" width="500" height="1.5"/>
    <rect x="0" y="257" width="500" height="1.5"/>
    <rect x="0" y="261" width="500" height="1.5"/>
    <rect x="0" y="265" width="500" height="1.5"/>
    <rect x="0" y="269" width="500" height="1.5"/>
    <rect x="0" y="273" width="500" height="1.5"/>
    <rect x="0" y="277" width="500" height="1.5"/>
    <rect x="0" y="281" width="500" height="1.5"/>
    <rect x="0" y="285" width="500" height="1.5"/>
    <rect x="0" y="289" width="500" height="1.5"/>
    <rect x="0" y="293" width="500" height="1.5"/>
    <rect x="0" y="297" width="500" height="1.5"/>
    <rect x="0" y="301" width="500" height="1.5"/>
    <rect x="0" y="305" width="500" height="1.5"/>
    <rect x="0" y="309" width="500" height="1.5"/>
    <rect x="0" y="313" width="500" height="1.5"/>
    <rect x="0" y="317" width="500" height="1.5"/>
    <rect x="0" y="321" width="500" height="1.5"/>
    <rect x="0" y="325" width="500" height="1.5"/>
    <rect x="0" y="329" width="500" height="1.5"/>
    <rect x="0" y="333" width="500" height="1.5"/>
    <rect x="0" y="337" width="500" height="1.5"/>
    <rect x="0" y="341" width="500" height="1.5"/>
    <rect x="0" y="345" width="500" height="1.5"/>
    <rect x="0" y="349" width="500" height="1.5"/>
    <rect x="0" y="353" width="500" height="1.5"/>
    <rect x="0" y="357" width="500" height="1.5"/>
    <rect x="0" y="361" width="500" height="1.5"/>
    <rect x="0" y="365" width="500" height="1.5"/>
    <rect x="0" y="369" width="500" height="1.5"/>
    <rect x="0" y="373" width="500" height="1.5"/>
    <rect x="0" y="377" width="500" height="1.5"/>
    <rect x="0" y="381" width="500" height="1.5"/>
    <rect x="0" y="385" width="500" height="1.5"/>
    <rect x="0" y="389" width="500" height="1.5"/>
    <rect x="0" y="393" width="500" height="1.5"/>
    <rect x="0" y="397" width="500" height="1.5"/>
    <rect x="0" y="401" width="500" height="1.5"/>
    <rect x="0" y="405" width="500" height="1.5"/>
    <rect x="0" y="409" width="500" height="1.5"/>
    <rect x="0" y="413" width="500" height="1.5"/>
    <rect x="0" y="417" width="500" height="1.5"/>
    <rect x="0" y="421" width="500" height="1.5"/>
    <rect x="0" y="425" width="500" height="1.5"/>
    <rect x="0" y="429" width="500" height="1.5"/>
    <rect x="0" y="433" width="500" height="1.5"/>
    <rect x="0" y="437" width="500" height="1.5"/>
    <rect x="0" y="441" width="500" height="1.5"/>
    <rect x="0" y="445" width="500" height="1.5"/>
    <rect x="0" y="449" width="500" height="1.5"/>
    <rect x="0" y="453" width="500" height="1.5"/>
    <rect x="0" y="457" width="500" height="1.5"/>
    <rect x="0" y="461" width="500" height="1.5"/>
    <rect x="0" y="465" width="500" height="1.5"/>
    <rect x="0" y="469" width="500" height="1.5"/>
    <rect x="0" y="473" width="500" height="1.5"/>
    <rect x="0" y="477" width="500" height="1.5"/>
    <rect x="0" y="481" width="500" height="1.5"/>
    <rect x="0" y="485" width="500" height="1.5"/>
    <rect x="0" y="489" width="500" height="1.5"/>
    <rect x="0" y="493" width="500" height="1.5"/>
    <rect x="0" y="497" width="500" height="1.5"/>
  </g>
</svg>
